<svg xmlns="http://www.w3.org/2000/svg" width="111" height="80" aria-hidden="true"><g fill="none" fill-rule="evenodd"><path fill="#FFF" d="M13 24h85v29H13z"/><path fill="#F15A2C" fill-rule="nonzero" d="M91.447 33.624c-.363-.649-.754-1.11-1.165-1.365-.415-.258-.841-.39-1.253-.39-.412 0-.833.132-1.247.39-.42.254-.808.716-1.173 1.365-.36.653-.66 1.53-.894 2.636-.235 1.11-.379 2.503-.435 4.188h7.497c-.057-1.685-.198-3.077-.436-4.188-.233-1.103-.534-1.98-.897-2.636h.003Z"/><path fill="#F15A2C" fill-rule="nonzero" d="M83.027 14.216C77.727-2.514 71.168 10.596 55.793 0 39.904 11.07 33.596-2.973 28.056 14.216 8.139 19.869 12.856 23.981 0 39.769c12.108 14.828 8.895 21.31 28.056 25.793C33.34 83.68 39.904 67.99 55.793 80c15.881-14.828 19.657 5.584 27.234-14.438C101.167 60.842 99.144 53.9 111 39.77c-12.857-14.61-9.321-19.438-27.973-25.553Zm.833 13.648h10.032v1.101H83.86v-1.101Zm-52.763 20.88c.016.395.037.742.065 1.044.029.326.066.612.125.854H14.83v-.41l2.51-.605V26.793l-2.51-.612v-.408h8.542v.408l-2.497.612V49.83h7.501c0-1.15.236-2.21.709-3.19a9.05 9.05 0 0 1 1.791-2.533h.417c-.057.367-.099.736-.125 1.106-.03.351-.053.703-.066 1.055-.014.385-.016.752-.016 1.101 0 .524.002.986.016 1.376h-.004Zm18.828-16.466-2.497.61v16.75l2.497.621v.404h-5.84v-2.45a6.265 6.265 0 0 1-1.165 1.55 6.349 6.349 0 0 1-1.476 1.043c-.598.314-1.311.469-2.142.469a5.9 5.9 0 0 1-2.316-.455 5.536 5.536 0 0 1-1.853-1.244 5.499 5.499 0 0 1-1.228-1.916c-.292-.75-.438-1.586-.438-2.51V32.887l-2.497-.61v-.41h8.125v.41l-2.295.61V45.15c0 1.935.318 3.3.937 4.107.623.799 1.358 1.203 2.186 1.203.671 0 1.262-.194 1.77-.573.497-.36.939-.786 1.314-1.267a7.618 7.618 0 0 0 1.08-1.842v-13.89l-2.29-.61v-.41h8.128v.41Zm31.657 18.385H73.46v-.404l2.293-.621V37.382c0-1.93-.316-3.301-.94-4.107-.623-.803-1.353-1.196-2.189-1.196-.699 0-1.287.187-1.79.57-.498.381-.933.8-1.293 1.266a9.337 9.337 0 0 0-1.08 1.837v13.886l2.292.621v.404H62.84v-.404l2.29-.621V37.382c0-1.93-.322-3.301-.946-4.107-.626-.803-1.341-1.196-2.18-1.196-.7 0-1.291.187-1.795.57-.484.366-.919.791-1.292 1.266a9.223 9.223 0 0 0-1.079 1.837v13.886l2.286.621v.404h-8.118v-.404l2.497-.621v-16.75l-2.497-.61v-.41h5.835v2.45c.27-.544.652-1.045 1.12-1.514.396-.383.89-.727 1.5-1.06.616-.332 1.337-.491 2.17-.491 1.054 0 1.923.187 2.606.572.678.38 1.221.808 1.638 1.268a6.08 6.08 0 0 1 1.174 1.835 8.656 8.656 0 0 1 1.29-1.835c.436-.46.982-.889 1.627-1.268.638-.385 1.398-.572 2.29-.572.838 0 1.603.155 2.31.445a5.688 5.688 0 0 1 1.856 1.254 5.363 5.363 0 0 1 1.234 1.92c.285.742.426 1.587.426 2.505v12.256l2.504.622v.403l-.004.005Zm4.09-5.026c.267 1.17.613 2.115 1.041 2.842.43.723.913 1.23 1.462 1.53.51.298 1.092.454 1.685.451.725 0 1.394-.139 2.034-.409a6.063 6.063 0 0 0 1.713-1.099 5.644 5.644 0 0 0 1.227-1.68c.322-.672.54-1.387.647-2.122h.626a7.53 7.53 0 0 1-.722 2.436 7.097 7.097 0 0 1-1.438 1.934c-.588.544-1.27.98-2.015 1.286a6.55 6.55 0 0 1-2.495.469 6.776 6.776 0 0 1-2.992-.679c-.946-.45-1.78-1.101-2.528-1.964-.727-.855-1.318-1.898-1.747-3.147-.426-1.237-.647-2.645-.647-4.218 0-1.572.205-3.081.63-4.335.415-1.254.968-2.292 1.639-3.128a7.025 7.025 0 0 1 2.38-1.898c.899-.44 1.85-.653 2.852-.653 1.003 0 1.954.212 2.856.653.906.437 1.695 1.071 2.372 1.898.683.836 1.232 1.877 1.646 3.128.423 1.254.626 2.692.626 4.335H85.28c0 1.734.131 3.198.395 4.366l-.002.004Z"/></g></svg>