<svg xmlns="http://www.w3.org/2000/svg" width="100" height="100"><path fill="#d6d6d6" d="M50.086 97.246a22.664 22.664 0 0 1-7.193-1.067 6.384 6.384 0 0 1-1.712-1.02 1.315 1.315 0 0 1-.395-.82c-.137-1.025-.198-2.06-.319-3.087-.083-.734-.286-1.46-.315-2.193-.03-.734.131-1.49.13-2.235 0-1.14-.046-2.282-.123-3.415a5.914 5.914 0 0 0-.324-.967 5.616 5.616 0 0 1-.349-1.749 3.374 3.374 0 0 0-.118-1.17 12.715 12.715 0 0 1-.222-2.179q-.25-3.737-.487-7.477c-.122-1.91-.236-3.821-.356-5.732-.143-2.272-.295-4.543-.434-6.814-.109-1.788-.203-3.577-.308-5.365q-.215-3.665-.434-7.33c-.089-1.534-.17-3.069-.256-4.603-.13-2.305-.25-4.61-.39-6.914a585.968 585.968 0 0 0-.407-6.498q-.188-2.68-.435-5.356c-.233-2.504-.437-5.013-.763-7.505-.282-2.15-.71-4.28-1.093-6.414-.049-.275-.26-.52-.32-.796a13.501 13.501 0 0 1-.402-2.274c-.026-.634.614-1.091 1.395-1.117.861-.028 1.724-.008 2.582-.01h.123c2.716.017 5.431.038 8.146.048q3.332.012 6.664 0c1.644-.006 3.289 0 4.93-.061 2.553-.098 5.102-.262 7.653-.37a2.979 2.979 0 0 1 1.235.194c1.218.507 1.31.935 1 2.332-.25 1.134-.734 2.221-.934 3.36a149.11 149.11 0 0 0-1.16 7.755c-.314 2.59-.52 5.217-.743 7.83-.177 2.083-.308 4.165-.461 6.248-.16 2.166-.327 4.326-.478 6.49-.129 1.82-.241 3.64-.359 5.46q-.244 3.776-.485 7.551c-.108 1.715-.2 3.429-.308 5.143-.138 2.166-.292 4.332-.429 6.493-.095 1.526-.17 3.053-.262 4.582-.14 2.362-.29 4.724-.431 7.085-.091 1.526-.161 3.053-.263 4.582a135.462 135.462 0 0 1-.313 3.807 1.06 1.06 0 0 1-.228.589 1.928 1.928 0 0 0-.403 1.458q.014 2.178-.046 4.355c-.041 1.39-.074 2.785-.219 4.165a8.722 8.722 0 0 1-.623 2.666 2.647 2.647 0 0 1-1.382 1.12 15.804 15.804 0 0 1-5.831 1.19c-.504-.023-1.013.02-1.345.035z"/></svg>
