<svg xmlns="http://www.w3.org/2000/svg" width="100" height="100"><path fill="#e2e8f0" d="M29.027 52.103v-17.8c0-.749.028-1.5.09-2.244a1.517 1.517 0 0 0-.755-1.565 1.023 1.023 0 0 1-.4-.733c-.06-3.144-.084-6.289-.116-9.433q-.052-5.23-.1-10.46c-.009-1.122-.053-2.246.01-3.363a2.528 2.528 0 0 1 1.935-2.21 26.486 26.486 0 0 1 3.148-.2q1.707-.063 3.416-.067c4.271-.008 8.543.007 12.814-.008 6.258-.022 12.516-.065 18.775-.088a11.224 11.224 0 0 1 1.654.123 2.606 2.606 0 0 1 2.374 2.758q.066 2.467.1 4.934c.041 3.128.058 6.256.11 9.384.045 2.784.118 5.568.194 8.352.012.443-.082.737-.557.882a1.139 1.139 0 0 0-.812 1.2v2.2l-.1 12.76c-.024 2.574-.066 5.148-.1 7.722-.036 3.128-.06 6.257-.1 9.385q-.09 7.086-.2 14.172-.084 5.5-.2 10.993a71.332 71.332 0 0 1-.192 3.95 1.809 1.809 0 0 1-1.65 1.845 29.171 29.171 0 0 1-5.7.741c-2.936-.094-5.76.724-8.663.721-2.443 0-4.892.061-7.329-.079-2.35-.135-4.683-.542-7.032-.737-1.835-.15-3.686-.1-5.519-.259a17.146 17.146 0 0 1-3.29-.685 1.9 1.9 0 0 1-1.516-2.15q-.046-5.01-.1-10.022c-.033-3.226-.086-6.452-.093-9.678-.014-6.78 0-13.56 0-20.34z"/></svg>
